/* XPM */
static char *c92b645895bf468ec23582748d8f9743BLeQv1JwG9EZtBp1[] = {
/* columns rows colors chars-per-pixel */
"32 32 212 2 ",
"   c None",
".  c #0A0906",
"X  c #060608",
"o  c #0D0C09",
"O  c #080607",
"+  c #100E09",
"@  c #1E1909",
"#  c #15100C",
"$  c #0C0B16",
"%  c #221D0A",
"&  c #27120B",
"*  c #2E1C13",
"=  c #271C14",
"-  c #3F1811",
";  c #26200B",
":  c #372F0F",
">  c #332214",
",  c #3A2C1B",
"<  c #382214",
"1  c #3C3616",
"2  c #49250E",
"3  c #4B2414",
"4  c #442318",
"5  c #4A271A",
"6  c #472A17",
"7  c #542C12",
"8  c #592F13",
"9  c #592E1E",
"0  c #4A391A",
"q  c #5C3213",
"w  c #5B311F",
"e  c #553717",
"r  c #55290E",
"t  c #632D15",
"y  c #633314",
"u  c #6A3717",
"i  c #6A3917",
"p  c #66341E",
"a  c #6A361B",
"s  c #6D3A18",
"d  c #753A1E",
"f  c #7A3C1E",
"g  c #75371C",
"h  c #513D23",
"j  c #693620",
"k  c #6E3922",
"l  c #653522",
"z  c #7D3F20",
"x  c #733B22",
"c  c #5C510F",
"v  c #4D4617",
"b  c #544612",
"n  c #564813",
"m  c #5C4C14",
"M  c #5E541F",
"N  c #69530E",
"B  c #634B1A",
"V  c #7A451F",
"C  c #6D5710",
"Z  c #6E5911",
"A  c #68581C",
"S  c #705A11",
"D  c #7B6B1D",
"F  c #766317",
"G  c #554221",
"H  c #514D2B",
"J  c #754223",
"K  c #7B4523",
"L  c #7D4A25",
"P  c #7F4828",
"I  c #625C2F",
"U  c #6A5231",
"Y  c #7B5926",
"T  c #6B6224",
"R  c #7C7022",
"E  c #7C6726",
"W  c #814814",
"Q  c #8C501C",
"!  c #835319",
"~  c #9A6B1E",
"^  c #87741C",
"/  c #834322",
"(  c #834C25",
")  c #8C4E24",
"_  c #824B29",
"`  c #865124",
"'  c #8C5026",
"]  c #8F5D23",
"[  c #925325",
"{  c #93552A",
"}  c #965A2D",
"|  c #9C5D2D",
" . c #985B26",
".. c #845730",
"X. c #965D30",
"o. c #995E32",
"O. c #856E22",
"+. c #816721",
"@. c #9A6522",
"#. c #8C7D25",
"$. c #857A2F",
"%. c #8C7928",
"&. c #947B23",
"*. c #957D29",
"=. c #9C6233",
"-. c #9D6138",
";. c #936A31",
":. c #9E7D3C",
">. c #A0622C",
",. c #AA6E28",
"<. c #AB7729",
"1. c #A46433",
"2. c #AC6B31",
"3. c #8F7C48",
"4. c #9A7646",
"5. c #9B831C",
"6. c #A48D1A",
"7. c #AC931E",
"8. c #B5981E",
"9. c #968227",
"0. c #9A8539",
"q. c #8E8537",
"w. c #A28928",
"e. c #A38939",
"r. c #A99236",
"t. c #B1992C",
"y. c #BAA736",
"u. c #CFAD00",
"i. c #C8A600",
"p. c #D7B604",
"a. c #D8B603",
"s. c #D9B904",
"d. c #D8BB0A",
"f. c #CDB01F",
"g. c #C39E2B",
"h. c #C8A53B",
"j. c #C2A839",
"k. c #CAB63A",
"l. c #D2BD3D",
"z. c #D4BA35",
"x. c #DDC716",
"c. c #DBC12D",
"v. c #DDC333",
"b. c #DBC43C",
"n. c #D8C63A",
"m. c #E8CE3B",
"M. c #E5CB3B",
"N. c #FAC635",
"B. c #F9C832",
"V. c #EED13A",
"C. c #ECD638",
"Z. c #FEDB3F",
"A. c #F7D53C",
"S. c #F9C62A",
"D. c #978941",
"F. c #A79647",
"G. c #B7A540",
"H. c #B9A15F",
"J. c #BBA669",
"K. c #CEB745",
"L. c #D3BD43",
"P. c #DABB47",
"I. c #D3BD4C",
"U. c #DCBC49",
"Y. c #D2BA5F",
"T. c #CBB258",
"R. c #DAC34C",
"E. c #DAC445",
"W. c #CCC05D",
"Q. c #D6C254",
"!. c #DCC553",
"~. c #E4CA43",
"^. c #EACE42",
"/. c #E2CA4B",
"(. c #EACD4A",
"). c #ECD244",
"_. c #EDD34C",
"`. c #F3DA46",
"'. c #FEDB41",
"]. c #F0D54D",
"[. c #F4DB4C",
"{. c #FAD542",
"}. c #E1C953",
"|. c #EDD555",
" X c #EBD359",
".X c #F1D752",
"XX c #F4DB52",
"oX c #F8DF54",
"OX c #FFE44D",
"+X c #FBE747",
"@X c #F9E451",
"#X c #FFEB51",
"$X c #FFF554",
"%X c #D2C462",
"&X c #E6D465",
"*X c #F2DB60",
"=X c #EADC72",
"-X c #F5DF71",
";X c #FAEA6D",
":X c #EAE77B",
">X c #F5E771",
",X c #F6E872",
"<X c #9F8D88",
"1X c #A28F89",
"2X c #A5908A",
"3X c #A99588",
"4X c #B39F8A",
"5X c #B5A28C",
"6X c #D6D49B",
"7X c #E3DC98",
"8X c #FEFA87",
"9X c #EEF0AD",
/* pixels */
"                                                                ",
"                                                                ",
"                  5X3X1X2X2X<X<X2X2X2X2X1X1X5X                  ",
"          6XJ...k j p p p p p p k j p p p p k x ..H.7X          ",
"        8XY.{ X.=.X.X.X.=.=.=.=.=.X.X.X.X.-.-.-.-.} T.8X        ",
"      I.#XU.U.U.U.P.P.P.P.U.L.U.P.P.P.U.P.U.R.P.U.U.L.OX~.      ",
"      &X=X>X>X>X,X,X,X,X,X,X,X,X,X,X,X>X,X,X,X,X,X>X;X=X&X      ",
"        &.B m n n b b b b b n n n n n n b b b b n m B %.8.      ",
"        9.e = # o X X o o o . X X + + O o X X X + = 0 9.        ",
"          O.G , ; ; % % % % 0 M M : : v @ ; % @ > h +.          ",
"            C , ; ; v T $.$.R.E._.y.y.(.T @ % % , S             ",
"              N 9.y.l.(.E.M.b._._.[.).~.~.t.7.9.S               ",
"              V.V.(.M./.E./._.[.|..X^.XXb.oX.X^.M.C.            ",
"            `.XXm.|.(._.oX@X_. X|.*X|. X).].[._. XXXv.          ",
"          f.k.K.R.Q.L..X~.R.L.R.L.Q.Q.}.I.I.R.l.R.K.k.x.        ",
"        C.z.k.z.l.L.k.L.l.v.E.b.b.l.b.b.b.b.E.b.l.l.v.V.        ",
"      [.@X@X[.[.`.[.[.`.`.`.[.[.[.[.`.`.`.XX`.`.`.].XX@X`.      ",
"      B.S.A.x.a.s.s.a.a.p.x.p.p.i.u.a.s.s.s.s.s.s.d.N.N.S.      ",
"      h.h.r.F Z Z S Z Z C c #.y.n.y.D C Z C Z Z Z S w.K.g.      ",
"      r.m.7 4 5 5 5 4 6 6 - :.7XF.:XU 3 9 9 l l w w 7 z.6.      ",
"      r.OXQ k J J J J p J t J.6X$ 9X4.d P _ _ L L x ( {.7.      ",
"      e.OX] J J K ( L L L K e.W.0.%X;.K L L J L _ P ( A.6.      ",
"      0.OX,.{ | | } { } | } Q Q @.V Q { { } >.1.1.1.2.'.5.      ",
"      9.@X,.} >.| [ ' ) ) [ { { { } ] [ { | 1.>.| o.@.Z.w.      ",
"      O.#X>.V ! ( ( V / K V V V K V K / K ( ( ' ' '  .Z.5.      ",
"        $X@.x z V f f z f f f d f d g g f x f / ' / [ +X^       ",
"        #X@.g u y y y y u u i i u i i s y <.(. .a a ! Z.$.      ",
"        $X~ r q 7 q y q r 2 2 7 7 7 3 7 8 t.;X&.r 8 ! +Xq.      ",
"      H y.B * 6 < < * * 5 B Y F.:.6 b 6 & 9.-XE * * h y.T       ",
"                          D n Y.0.c $XR   R *Xv                 ",
"                                                                ",
"                                                                "
};
