/* XPM */
static char *_6c0b151342a45559d0f07847153ea9f4boQRZX8IaBk6jvr[] = {
/* columns rows colors chars-per-pixel */
"32 32 6 1 ",
"  c None",
". c #222034",
"X c gray61",
"o c gray78",
"O c gray82",
"+ c white",
/* pixels */
"                                ",
"                                ",
"                                ",
"                                ",
"             .....              ",
"            .oOOOo.             ",
"           .oOOOOO+.            ",
"          .oOo...oO+.           ",
"         .oOo.   .oO+.          ",
"         .oO.     .O+.          ",
"         .oO.     .O+.          ",
"         .oo.     .O+.          ",
"         .oOo.   .oOo.          ",
"          .oOo...oOo.           ",
"           .oOOoOOo.            ",
"            .oOOOo.             ",
"             .oOo.              ",
"             .oO+.              ",
"             .oO+.              ",
"             .oO+.              ",
"             .oO+.              ",
"             .oOo.              ",
"             .oOo.              ",
"             .oOo....           ",
"             .oOOOOOX.          ",
"             .oOOOX..           ",
"             .oOOOOOX.          ",
"             .oOOOOOX.          ",
"             .oOOOOX.           ",
"             .oOO...            ",
"              .O.               ",
"               .                "
};
